<svg width="16" height="16" viewBox="0 0 16 16" fill="none" xmlns="http://www.w3.org/2000/svg">
<path d="M8 16C9.26142 16 10.2846 15.1047 10.2846 14H5.71536C5.71536 15.1047 6.73857 16 8 16ZM15.6925 11.3216C15.0025 10.6728 13.7114 9.69687 13.7114 6.5C13.7114 4.07188 11.7657 2.12812 9.14214 1.65125V1C9.14214 0.447812 8.63071 0 8 0C7.36929 0 6.85786 0.447812 6.85786 1V1.65125C4.2343 2.12812 2.28859 4.07188 2.28859 6.5C2.28859 9.69687 0.997522 10.6728 0.307524 11.3216C0.0932387 11.5231 -0.00176102 11.7641 2.46924e-05 12C0.00395325 12.5125 0.463595 13 1.14645 13H14.8536C15.5364 13 15.9964 12.5125 16 12C16.0018 11.7641 15.9068 11.5228 15.6925 11.3216Z" fill="white"/>
</svg>
