<svg width="9" height="12" viewBox="0 0 9 12" fill="none" xmlns="http://www.w3.org/2000/svg">
<path d="M9 4.2C9 3.64845 8.8836 3.1023 8.65746 2.59273C8.43131 2.08316 8.09984 1.62016 7.68198 1.23015C7.26412 0.840145 6.76804 0.530776 6.22208 0.319706C5.67611 0.108636 5.09095 0 4.5 0C3.90905 0 3.32389 0.108636 2.77792 0.319706C2.23196 0.530776 1.73588 0.840145 1.31802 1.23015C0.900156 1.62016 0.568688 2.08316 0.342542 2.59273C0.116396 3.1023 -8.80582e-09 3.64845 0 4.2C0 5.0322 0.262929 5.8062 0.710357 6.459H0.705214L4.5 12L8.29479 6.459H8.29029C8.7537 5.78495 9.00003 5.00089 9 4.2ZM4.5 6C3.98851 6 3.49797 5.81036 3.13629 5.47279C2.77462 5.13523 2.57143 4.67739 2.57143 4.2C2.57143 3.72261 2.77462 3.26477 3.13629 2.92721C3.49797 2.58964 3.98851 2.4 4.5 2.4C5.01149 2.4 5.50203 2.58964 5.86371 2.92721C6.22538 3.26477 6.42857 3.72261 6.42857 4.2C6.42857 4.67739 6.22538 5.13523 5.86371 5.47279C5.50203 5.81036 5.01149 6 4.5 6Z" fill="#0D0D0D"/>
</svg>
