<svg width="27" height="27" viewBox="0 0 27 27" fill="none" xmlns="http://www.w3.org/2000/svg">
<circle cx="13.5" cy="13.5" r="13.5" fill="#EBF2FD"/>
<path d="M8.85702 18.6875C8.85702 19.0356 8.99248 19.3694 9.2336 19.6156C9.47472 19.8617 9.80174 20 10.1427 20H17.857C18.198 20 18.525 19.8617 18.7662 19.6156C19.0073 19.3694 19.1427 19.0356 19.1427 18.6875V9.5H8.85702V18.6875ZM16.1427 11.6875C16.1427 11.5715 16.1879 11.4602 16.2683 11.3781C16.3486 11.2961 16.4576 11.25 16.5713 11.25C16.685 11.25 16.794 11.2961 16.8744 11.3781C16.9547 11.4602 16.9999 11.5715 16.9999 11.6875V17.8125C16.9999 17.9285 16.9547 18.0398 16.8744 18.1219C16.794 18.2039 16.685 18.25 16.5713 18.25C16.4576 18.25 16.3486 18.2039 16.2683 18.1219C16.1879 18.0398 16.1427 17.9285 16.1427 17.8125V11.6875ZM13.5713 11.6875C13.5713 11.5715 13.6165 11.4602 13.6968 11.3781C13.7772 11.2961 13.8862 11.25 13.9999 11.25C14.1135 11.25 14.2226 11.2961 14.3029 11.3781C14.3833 11.4602 14.4284 11.5715 14.4284 11.6875V17.8125C14.4284 17.9285 14.3833 18.0398 14.3029 18.1219C14.2226 18.2039 14.1135 18.25 13.9999 18.25C13.8862 18.25 13.7772 18.2039 13.6968 18.1219C13.6165 18.0398 13.5713 17.9285 13.5713 17.8125V11.6875ZM10.9999 11.6875C10.9999 11.5715 11.045 11.4602 11.1254 11.3781C11.2058 11.2961 11.3148 11.25 11.4284 11.25C11.5421 11.25 11.6511 11.2961 11.7315 11.3781C11.8119 11.4602 11.857 11.5715 11.857 11.6875V17.8125C11.857 17.9285 11.8119 18.0398 11.7315 18.1219C11.6511 18.2039 11.5421 18.25 11.4284 18.25C11.3148 18.25 11.2058 18.2039 11.1254 18.1219C11.045 18.0398 10.9999 17.9285 10.9999 17.8125V11.6875ZM19.5713 6.875H16.357L16.1052 6.36368C16.0519 6.25436 15.9697 6.16241 15.868 6.09816C15.7663 6.03391 15.649 5.99992 15.5293 6H12.4677C12.3484 5.99954 12.2313 6.0334 12.1299 6.09772C12.0285 6.16204 11.947 6.25421 11.8945 6.36368L11.6427 6.875H8.42845C8.31479 6.875 8.20578 6.9211 8.1254 7.00315C8.04503 7.08519 7.99988 7.19647 7.99988 7.3125V8.1875C7.99988 8.30354 8.04503 8.41482 8.1254 8.49686C8.20578 8.57891 8.31479 8.625 8.42845 8.625H19.5713C19.685 8.625 19.794 8.57891 19.8744 8.49686C19.9547 8.41482 19.9999 8.30354 19.9999 8.1875V7.3125C19.9999 7.19647 19.9547 7.08519 19.8744 7.00315C19.794 6.9211 19.685 6.875 19.5713 6.875Z" fill="#E40404"/>
</svg>
