<svg width="10" height="10" viewBox="0 0 10 10" fill="none" xmlns="http://www.w3.org/2000/svg">
<path d="M3.125 5.71429H2.8125C2.12207 5.71429 1.5625 6.35491 1.5625 7.14554V8.56875C1.5625 9.35915 2.12207 10 2.8125 10H3.125C3.47012 10 3.75 9.67946 3.75 9.28438V6.42991C3.75 6.0346 3.47012 5.71429 3.125 5.71429ZM7.1875 5.71429H6.875C6.52988 5.71429 6.25 6.0346 6.25 6.42991V9.28438C6.25 9.67946 6.52988 10 6.875 10H7.1875C7.87793 10 8.4375 9.35915 8.4375 8.56875V7.14554C8.4375 6.35513 7.87793 5.71429 7.1875 5.71429ZM5 0C2.20527 0 0.0892578 2.65915 0 5.71429V8.21429C0 8.41161 0.139844 8.57143 0.3125 8.57143H0.625C0.797656 8.57143 0.9375 8.41161 0.9375 8.21429V5.71429C0.9375 3.15469 2.76035 1.07589 5 1.07545C7.23965 1.07589 9.0625 3.15469 9.0625 5.71429V8.21429C9.0625 8.41161 9.20234 8.57143 9.375 8.57143H9.6875C9.86016 8.57143 10 8.41161 10 8.21429V5.71429C9.91074 2.65915 7.79473 0 5 0Z" fill="#0D0D0D"/>
</svg>
