<svg width="10" height="10" viewBox="0 0 10 10" fill="none" xmlns="http://www.w3.org/2000/svg">
<path d="M8 8C8.26522 8 8.51957 8.10536 8.70711 8.29289C8.89464 8.48043 9 8.73478 9 9C9 9.26522 8.89464 9.51957 8.70711 9.70711C8.51957 9.89464 8.26522 10 8 10C7.73478 10 7.48043 9.89464 7.29289 9.70711C7.10536 9.51957 7 9.26522 7 9C7 8.445 7.445 8 8 8ZM0 0H1.635L2.105 1H9.5C9.63261 1 9.75979 1.05268 9.85355 1.14645C9.94732 1.24021 10 1.36739 10 1.5C10 1.585 9.975 1.67 9.94 1.75L8.15 4.985C7.98 5.29 7.65 5.5 7.275 5.5H3.55L3.1 6.315L3.085 6.375C3.085 6.40815 3.09817 6.43995 3.12161 6.46339C3.14505 6.48683 3.17685 6.5 3.21 6.5H9V7.5H3C2.73478 7.5 2.48043 7.39464 2.29289 7.20711C2.10536 7.01957 2 6.76522 2 6.5C2 6.325 2.045 6.16 2.12 6.02L2.8 4.795L1 1H0V0ZM3 8C3.26522 8 3.51957 8.10536 3.70711 8.29289C3.89464 8.48043 4 8.73478 4 9C4 9.26522 3.89464 9.51957 3.70711 9.70711C3.51957 9.89464 3.26522 10 3 10C2.73478 10 2.48043 9.89464 2.29289 9.70711C2.10536 9.51957 2 9.26522 2 9C2 8.445 2.445 8 3 8ZM7.5 4.5L8.89 2H2.57L3.75 4.5H7.5Z" fill="#0D0D0D"/>
</svg>
