<svg width="10" height="10" viewBox="0 0 10 10" fill="none" xmlns="http://www.w3.org/2000/svg">
<path d="M5 10C5.78839 10 6.4279 9.44043 6.4279 8.75H3.5721C3.5721 9.44043 4.21161 10 5 10ZM9.8078 7.07598C9.37655 6.67051 8.56963 6.06055 8.56963 4.0625C8.56963 2.54492 7.35356 1.33008 5.71384 1.03203V0.625C5.71384 0.279883 5.3942 0 5 0C4.6058 0 4.28616 0.279883 4.28616 0.625V1.03203C2.64644 1.33008 1.43037 2.54492 1.43037 4.0625C1.43037 6.06055 0.623451 6.67051 0.192202 7.07598C0.0582742 7.20195 -0.00110064 7.35254 1.54327e-05 7.5C0.00247078 7.82031 0.289747 8.125 0.716531 8.125H9.28347C9.71025 8.125 9.99775 7.82031 9.99998 7.5C10.0011 7.35254 9.94173 7.20176 9.8078 7.07598Z" fill="#0D0D0D"/>
</svg>
