<svg width="7" height="6" viewBox="0 0 7 6" fill="none" xmlns="http://www.w3.org/2000/svg">
<path d="M5.90909 2.29167H3.86364V0.416667C3.86364 0.186589 3.66009 0 3.40909 0H2.95455C2.70355 0 2.5 0.186589 2.5 0.416667V2.29167H0.454545C0.203551 2.29167 0 2.47826 0 2.70833V3.125C0 3.35508 0.203551 3.54167 0.454545 3.54167H2.5V5.41667C2.5 5.64675 2.70355 5.83333 2.95455 5.83333H3.40909C3.66009 5.83333 3.86364 5.64675 3.86364 5.41667V3.54167H5.90909C6.16009 3.54167 6.36364 3.35508 6.36364 3.125V2.70833C6.36364 2.47826 6.16009 2.29167 5.90909 2.29167Z" fill="black"/>
</svg>
