<svg width="10" height="10" viewBox="0 0 10 10" fill="none" xmlns="http://www.w3.org/2000/svg">
<path d="M9.18295 5.32996C9.10136 5.23872 9.05636 5.12144 9.05636 5C9.05636 4.87856 9.10136 4.76128 9.18295 4.67004L9.83439 3.95014C9.90617 3.87149 9.95075 3.77252 9.96172 3.66743C9.97269 3.56235 9.94949 3.45655 9.89546 3.36522L8.87759 1.63546C8.8241 1.54423 8.74266 1.47192 8.64488 1.42883C8.54709 1.38574 8.43796 1.37407 8.33303 1.39549L7.37623 1.58546C7.25448 1.61018 7.12774 1.59026 7.01992 1.52947C6.91209 1.46869 6.83065 1.37124 6.79095 1.25551L6.4805 0.340634C6.44636 0.241337 6.38131 0.155091 6.29455 0.0940882C6.20779 0.033085 6.10371 0.000409342 5.99701 0.000679887H3.96127C3.85029 -0.00501036 3.74046 0.0251397 3.64857 0.0865252C3.55667 0.147911 3.48775 0.237157 3.45234 0.340634L3.16733 1.25551C3.12764 1.37124 3.04619 1.46869 2.93837 1.52947C2.83055 1.59026 2.7038 1.61018 2.58206 1.58546L1.59981 1.39549C1.50034 1.38168 1.39894 1.3971 1.30837 1.4398C1.2178 1.48251 1.14213 1.55058 1.09088 1.63546L0.0730072 3.36522C0.0176148 3.45553 -0.00729149 3.56074 0.00184924 3.66579C0.01099 3.77085 0.0537096 3.87037 0.123901 3.95014L0.770249 4.67004C0.851841 4.76128 0.896838 4.87856 0.896838 5C0.896838 5.12144 0.851841 5.23872 0.770249 5.32996L0.123901 6.04986C0.0537096 6.12963 0.01099 6.22915 0.00184924 6.33421C-0.00729149 6.43926 0.0176148 6.54447 0.0730072 6.63478L1.09088 8.36454C1.14437 8.45577 1.22581 8.52808 1.32359 8.57117C1.42137 8.61426 1.53051 8.62593 1.63544 8.60451L2.59224 8.41454C2.71398 8.38982 2.84073 8.40974 2.94855 8.47053C3.05637 8.53131 3.13782 8.62877 3.17751 8.74449L3.48796 9.65937C3.52337 9.76284 3.59229 9.85209 3.68419 9.91348C3.77609 9.97486 3.88592 10.005 3.9969 9.99932H6.03264C6.13934 9.99959 6.24342 9.96692 6.33018 9.90591C6.41694 9.84491 6.48199 9.75866 6.51613 9.65937L6.82658 8.74449C6.86628 8.62877 6.94772 8.53131 7.05554 8.47053C7.16336 8.40974 7.29011 8.38982 7.41185 8.41454L8.36865 8.60451C8.47358 8.62593 8.58272 8.61426 8.6805 8.57117C8.77829 8.52808 8.85973 8.45577 8.91321 8.36454L9.93109 6.63478C9.98512 6.54345 10.0083 6.43765 9.99734 6.33257C9.98637 6.22748 9.9418 6.12851 9.87001 6.04986L9.18295 5.32996ZM8.42464 5.99986L8.83178 6.4498L8.18035 7.55965L7.5798 7.43967C7.21326 7.36607 6.83196 7.42723 6.50829 7.61155C6.18462 7.79586 5.94111 8.0905 5.82398 8.43953L5.63058 8.99946H4.32771L4.14449 8.42953C4.02736 8.0805 3.78385 7.78586 3.46018 7.60155C3.13651 7.41723 2.75521 7.35607 2.38866 7.42967L1.78812 7.54965L1.1265 6.4448L1.53365 5.99486C1.78402 5.71989 1.92244 5.36392 1.92244 4.995C1.92244 4.62608 1.78402 4.27011 1.53365 3.99514L1.1265 3.5452L1.77794 2.44535L2.37848 2.56533C2.74503 2.63893 3.12633 2.57777 3.45 2.39345C3.77367 2.20914 4.01718 1.9145 4.13431 1.56547L4.32771 1.00054H5.63058L5.82398 1.57047C5.94111 1.9195 6.18462 2.21414 6.50829 2.39845C6.83196 2.58277 7.21326 2.64393 7.5798 2.57033L8.18035 2.45035L8.83178 3.5602L8.42464 4.01013C8.17707 4.28448 8.04038 4.63839 8.04038 5.005C8.04038 5.37161 8.17707 5.72552 8.42464 5.99986ZM4.97914 3.00027C4.57651 3.00027 4.18292 3.11755 3.84815 3.33729C3.51337 3.55702 3.25244 3.86933 3.09836 4.23474C2.94428 4.60014 2.90397 5.00222 2.98252 5.39013C3.06107 5.77804 3.25495 6.13435 3.53966 6.41402C3.82436 6.69369 4.1871 6.88414 4.58199 6.9613C4.97689 7.03846 5.38621 6.99886 5.75819 6.84751C6.13017 6.69615 6.44811 6.43984 6.6718 6.11099C6.89549 5.78214 7.01489 5.39551 7.01489 5C7.01489 4.46964 6.80041 3.961 6.41863 3.58598C6.03685 3.21096 5.51906 3.00027 4.97914 3.00027ZM4.97914 5.99986C4.77783 5.99986 4.58103 5.94122 4.41364 5.83136C4.24626 5.72149 4.11579 5.56533 4.03875 5.38263C3.96171 5.19993 3.94156 4.99889 3.98083 4.80494C4.02011 4.61098 4.11705 4.43282 4.2594 4.29299C4.40175 4.15316 4.58312 4.05793 4.78057 4.01935C4.97801 3.98077 5.18267 4.00057 5.36867 4.07625C5.55466 4.15192 5.71363 4.28008 5.82547 4.44451C5.93732 4.60893 5.99701 4.80225 5.99701 5C5.99701 5.26518 5.88977 5.5195 5.69889 5.70701C5.508 5.89452 5.2491 5.99986 4.97914 5.99986Z" fill="#0D0D0D"/>
</svg>
